<?xml version="1.0" encoding="utf-8"?>
<!-- Generator: Adobe Illustrator 23.0.1, SVG Export Plug-In . SVG Version: 6.00 Build 0)  -->
<svg version="1.1" id="Ebene_1" xmlns="http://www.w3.org/2000/svg" x="0px" y="0px"
     viewBox="0 0 500 500" style="enable-background:new 0 0 500 500;" xml:space="preserve">
<style type="text/css">
	.st0{fill:#515151;}
</style>
    <g>
	<path class="st0" d="M469.24,186.42c0-2.27,0.11-4.57-0.26-6.79c-3.83-23.26-21.68-38.37-45.33-38.42
		c-15.89-0.03-31.78,0-47.67-0.01c-11,0-17.59-4.69-21.11-15.15c-4.03-11.96-7.95-23.95-11.93-35.92
		c-3.1-9.35-10.27-14.52-20.18-14.52c-48.14-0.01-96.29-0.01-144.43,0c-9.87,0-17.01,5.2-20.13,14.59
		c-3.97,11.98-7.9,23.96-11.94,35.92c-3.52,10.43-10.11,15.06-21.16,15.08c-17.44,0.04-34.9-0.37-52.32,0.26
		c-21.92,0.79-40.78,20.46-40.82,42.16c-0.11,66.54-0.04,133.08-0.04,199.62c0,4.22,0.8,8.32,2.21,12.26
		c6.66,18.65,22.94,30.06,43.01,30.07c57.82,0.03,115.64,0.01,173.46,0.01s115.64-0.19,173.46,0.09
		c25.67,0.13,45.46-21.23,45.31-45.38C468.97,315.68,469.25,251.05,469.24,186.42z M250.51,381.73
		c-60.41-0.19-109.56-49.5-109.16-109.53c0.39-60.42,49.26-109.13,109.32-108.99c60.36,0.14,109.57,49.51,109.16,109.5
		C359.42,333.15,310.52,381.92,250.51,381.73z"/>
        <path class="st0" d="M250.64,206.88c-36.12-0.03-65.71,29.45-65.79,65.54c-0.08,35.99,29.55,65.6,65.69,65.67
		c36.06,0.06,65.69-29.47,65.79-65.57C316.43,236.56,286.75,206.91,250.64,206.88z"/>
</g>
</svg>
