<?xml version="1.0" encoding="utf-8"?>
<!-- Generator: Adobe Illustrator 23.0.1, SVG Export Plug-In . SVG Version: 6.00 Build 0)  -->
<svg version="1.1" xmlns="http://www.w3.org/2000/svg" x="0px" y="0px"
     viewBox="0 0 500 500" style="enable-background:new 0 0 500 500;" xml:space="preserve">
<style type="text/css">
	.st0{display:none;}
	.st1{display:inline;}
	.st2{fill:#515151;}
	.st3{display:inline;fill:#4B494B;}
</style>
    <g id="Ebene_1" class="st0">
	<g class="st1">
		<path class="st2" d="M471.43,440.76c-6.72,11.69-12.02,12.8-23.43,4.33c-21.07-15.64-41.89-31.62-63.02-47.16
			c-12.69-9.33-20.31-21.75-24.32-36.69c-1.1-4.11-1.42-8.3-1.41-12.55c0.04-26.71-0.1-53.43,0.06-80.14
			c0.12-19.38,7.87-35.57,22.99-47.44c21.67-17,43.98-33.2,66.04-49.7c2.44-1.83,5.03-3.42,8.02-4.33
			c6.41-1.95,11.61,0.63,13.91,6.91c0.37,1-0.33,2.46,1.17,3.01C471.43,264.92,471.43,352.84,471.43,440.76z"/>
        <path class="st2" d="M247.37,14c38.88,0.11,69.97,31.53,69.83,70.57c-0.14,38.57-31.63,69.74-70.36,69.65
			c-38.81-0.09-69.97-31.61-69.83-70.61C177.15,45,208.61,13.89,247.37,14z"/>
        <path class="st2" d="M79.06,42.04c31.08,0.06,55.93,25.09,55.88,56.26c-0.05,31.01-25.17,55.97-56.27,55.91
			c-31-0.06-55.93-25.17-55.88-56.31C22.84,66.86,47.9,41.97,79.06,42.04z"/>
        <path class="st2" d="M327.62,238.24c-9.34,0.15-18.69,0.06-28.04,0.06c-53.3,0-106.6-0.06-159.89,0.11
			c-4.19,0.01-5.01-1.27-4.83-5.05c0.3-6.12,0.32-12.27-0.01-18.39c-0.2-3.73,0.67-4.79,4.64-4.78
			c62.35,0.15,124.7,0.11,187.05,0.11c5.27,0,5.37-0.13,4.23-5.37c-3.05-14.02-13.99-22.68-29.05-22.69
			c-83.09-0.04-166.17-0.04-249.26,0c-18.08,0.01-29.68,11.78-29.68,29.91c-0.02,64.1-0.01,128.21,0,192.31
			c0,18.58,11.66,30.16,30.35,30.16c41.32,0.01,82.65,0,123.97,0c41.76,0,83.52,0.04,125.29-0.02
			c16.49-0.03,28.77-11.96,28.79-28.17c0.09-54.9,0.01-109.81,0.11-164.71C331.31,238.69,330.31,238.19,327.62,238.24z
			 M107.07,378.45c-15.1,0.22-28.36-13.04-28.17-28.15c0.2-15.16,13.01-27.87,28.05-27.81c15.1,0.06,27.88,12.82,27.95,27.91
			C134.97,365.45,122.28,378.23,107.07,378.45z"/>
	</g>
        <path class="st3" d="M234.75,163.83c0.01-0.3,0.09-0.58,0.25-0.83c3.67,0,7.33,0,11,0c-0.16,0.34-0.11,0.64,0.14,0.91
		C242.32,166.3,238.53,166.37,234.75,163.83z"/>
</g>
    <g id="Ebene_3">
	<path class="st2" d="M165.17,476.2c0.12-0.75,0.33-1.49,0.36-2.24c0.25-7.88-2.58-18.58,1.45-22.94c5.36-5.8,16.34-1.73,24.88-1.99
		c12.09-0.37,24.21-0.4,36.3,0.04c5.89,0.21,7.78-1.45,7.58-7.49c-0.45-13.98-0.57-28,0.05-41.97c0.28-6.51-2.61-8.22-8-9.47
		c-50.45-11.64-81.02-43.26-90.64-93.78c-4.39-23.02-1.52-46.78-1.15-70.18c0.12-7.68,6.3-11.78,14.28-11.16
		c7.98,0.62,12.42,5.33,12.53,13.29c0.22,16.26-0.02,32.53,0.1,48.79c0.39,50.14,39.95,88.72,89.97,87.85
		c46.34-0.81,83.31-39.09,84.44-87.71c0.36-15.5,0.11-31.01,0.06-46.52c-0.03-9.25,3.55-15.63,13.61-15.67
		c9.98-0.03,14.21,6.27,13.89,15.5c-0.9,25.96,3.42,52.27-4.3,77.78c-13.26,43.8-42.2,71.35-86.9,81.43
		c-8.55,1.93-11.7,4.78-11,13.8c0.95,12.41,0.6,24.96,0.09,37.42c-0.26,6.48,1.78,8.24,8.16,8.11c19.28-0.4,38.58,0.14,57.86-0.3
		c6.61-0.15,8.39,2.01,8.17,8.32c-0.22,6.33-1.3,12.82,0.85,19.09C280.25,476.2,222.71,476.2,165.17,476.2z"/>
        <path class="st2" d="M237.28,23.8c8.63,0.06,17.25,0.13,25.88,0.19c31.55,4.73,58.13,33.54,58.43,65.67
		c0.61,64.35,0.64,128.71,0.01,193.06c-0.35,36-31.94,66.23-69.18,68.11c-35.85,1.81-69.15-26.32-73.81-61.8
		c-2.33-17.76-0.77-35.54-1.64-53.29c-0.39-7.98,4.39-7.08,9.4-7.07c29.91,0.05,59.82-0.29,89.71,0.23
		c8.07,0.14,10.48-2.05,9.81-9.97c-0.55-6.51,0.97-11.89-9.44-11.6c-29.88,0.85-59.82-0.25-89.7,0.58
		c-11.38,0.32-9.62-6.06-9.71-12.85c-0.09-6.66-0.94-12.15,9.39-11.91c30.27,0.72,60.57-0.15,90.84,0.51
		c8.79,0.19,8.9-3.86,8.48-10.08c-0.38-5.62,2.13-11.65-8.33-11.38c-30.26,0.78-60.57-0.18-90.84,0.53
		c-10.12,0.24-9.82-4.89-9.54-11.77c0.27-6.58-2.01-13.31,9.55-12.99c29.88,0.82,59.82-0.27,89.7,0.57
		c10.18,0.29,9.19-4.68,9.62-11.44c0.49-7.69-1.43-10.27-9.69-10.11c-29.9,0.55-59.81-0.02-89.71,0.38c-7.29,0.1-9.58-1.65-9.65-9.3
		c-0.39-42.58,16.74-70.95,50.52-82.14C230.57,24.9,233.97,24.5,237.28,23.8z"/>
</g>
    <g id="Ebene_2" class="st0">
	<g class="st1">
		<path class="st2" d="M469.24,186.42c0-2.27,0.11-4.57-0.26-6.79c-3.83-23.26-21.68-38.37-45.33-38.42
			c-15.89-0.03-31.78,0-47.67-0.01c-11,0-17.59-4.69-21.11-15.15c-4.03-11.96-7.95-23.95-11.93-35.92
			c-3.1-9.35-10.27-14.52-20.18-14.52c-48.14-0.01-96.29-0.01-144.43,0c-9.87,0-17.01,5.2-20.13,14.59
			c-3.97,11.98-7.9,23.96-11.94,35.92c-3.52,10.43-10.11,15.06-21.16,15.08c-17.44,0.04-34.9-0.37-52.32,0.26
			c-21.92,0.79-40.78,20.46-40.82,42.16c-0.11,66.54-0.04,133.08-0.04,199.62c0,4.22,0.8,8.32,2.21,12.26
			c6.66,18.65,22.94,30.06,43.01,30.07c57.82,0.03,115.64,0.01,173.46,0.01s115.64-0.19,173.46,0.09
			c25.67,0.13,45.46-21.23,45.31-45.38C468.97,315.68,469.25,251.05,469.24,186.42z M250.51,381.73
			c-60.41-0.19-109.56-49.5-109.16-109.53c0.39-60.42,49.26-109.13,109.32-108.99c60.36,0.14,109.57,49.51,109.16,109.5
			C359.42,333.15,310.52,381.92,250.51,381.73z"/>
        <path class="st2" d="M250.64,206.88c-36.12-0.03-65.71,29.45-65.79,65.54c-0.08,35.99,29.55,65.6,65.69,65.67
			c36.06,0.06,65.69-29.47,65.79-65.57C316.43,236.56,286.75,206.91,250.64,206.88z"/>
	</g>
</g>
</svg>
